<svg xmlns="http://www.w3.org/2000/svg" xmlns:xlink="http://www.w3.org/1999/xlink" version="1.1" id="layer" x="0px" y="0px" style="enable-background:new -153 -46 652 652;" xml:space="preserve" viewBox="-127 226.3 600 106.4">
<style type="text/css">
	.st0{fill:#5C2D91;}
	.st1{fill:#FFFFFF;}
</style>
<path class="st0" d="M445.1,332.7H-99.1c-15.4,0-27.9-12.5-27.9-27.9v-78.5h600v78.5C473,320.2,460.5,332.7,445.1,332.7z"/>
<path class="st1" d="M117,328.3H-99.1c-13,0-23.6-10.5-23.6-23.5v-74.1h263.3v74.1C140.6,317.8,130,328.3,117,328.3z"/>
<path class="st0" d="M-70.7,252.4c-12.4,0-19.6,7.5-22.3,11.2v-27.1c0-1.5-1.2-2.6-2.6-2.6c-1.5,0-2.6,1.2-2.6,2.6v44.4  c0,12.9,10.5,26.8,27.5,26.8c16.5,0,27.5-14.4,27.5-27.8C-43.2,262.9-57.5,252.4-70.7,252.4z M-70.8,302.1  c-12.3,0-22.1-10-22.1-22.3s10-22.1,22.3-22c12.2,0.1,22.1,10,22,22.3C-48.8,292.2-58.6,302.1-70.8,302.1z M9.6,277.2h-25.9  c-1.5,0-2.7,1.2-2.7,2.7c0,1.5,1.2,2.7,2.7,2.7h28.7c1.4,0.1,2.6-0.9,2.7-2.4V280c0-15.2-12.3-27.6-27.6-27.6s-27.6,12.4-27.6,27.6  c0,15.2,12.3,27.6,27.6,27.6c9.6,0,18.4-5,23.4-13.1c0.8-1.2,0.5-2.9-0.8-3.7c-1.2-0.8-2.9-0.5-3.7,0.7c0,0,0,0.1-0.1,0.1  C0.1,302-13.5,305.4-24,299c-10.5-6.3-13.8-20.1-7.4-30.5c6.4-10.5,20-13.8,30.5-7.4C4.9,264.6,8.7,270.5,9.6,277.2L9.6,277.2z   M25.3,307.6c2.9,0,5.1-2.4,5.3-4.5v-46.2c-0.2-2.1-2.4-4.4-5.2-4.5h-0.1c-2.9,0-5.1,2.3-5.2,4.5v46.2  C20.1,305.4,22.3,307.6,25.3,307.6L25.3,307.6z M110.7,290.9v-34.1c-0.2-2.1-2.3-4.4-5.2-4.4c-2.9,0-5.1,2.4-5.2,4.5v34  c0,0.9-0.7,3.9-3.4,5.2c-5.8,2.7-8.7-2.1-8.8-2.3l-21.2-33.4c-2.8-4.8-10.7-10.6-21-6.8c-10.2,4.2-10.4,14.8-10.4,14.9v34.8  c0.2,2,2.3,4.3,5.3,4.3c2.8,0,5.2-2.3,5.2-4.8v-33.2c0-0.2-0.4-6,6.5-6.6c4-0.2,6,4,6,4c0.8,1.3,19.3,30.6,21.3,33.6  c1.5,2.4,6.5,7.1,13.7,7.1c2.5-0.1,4.9-0.5,7.2-1.5C111.4,301.8,110.7,291,110.7,290.9z"/>
<path class="st1" d="M188.8,275.7c-4.8,0-8.3-1-10.3-3.1c-1-1-1.6-2.3-1.7-3.7c0-0.1-0.2-4.1,2.6-7.2c2.1-2.3,5.2-3.4,9.5-3.4  c4,0,7.1,1.1,9.1,3.4c3.1,3.4,2.7,8.2,2.7,8.3c0,1.9,1.5,3.4,3.4,3.4s3.4-1.5,3.4-3.4c0-18.2-17.9-18.4-18.7-18.4h-0.1  c-18.2,0-18.8,15.5-18.8,17.3c0,5.1,4,13.9,18.9,13.9c5.1,0,8.7,1.1,10.7,3.2c1.2,1.3,2,3,1.9,4.8c0.1,0.9-0.1,4.2-2.5,6.7  c-2.1,2.2-5.5,3.4-10,3.4h-0.1c-4,0-7.1-1.2-9.3-3.4c-1.8-2.1-2.8-4.7-2.7-7.5c0-2-1.5-3.5-3.5-3.5c-2,0-3.5,1.5-3.5,3.5  c-0.2,4.6,1.5,9,4.8,12.3c3.5,3.6,8.5,5.5,14.1,5.5c14.5,0,19.7-9.1,19.7-17C208.4,281.6,200.7,275.7,188.8,275.7L188.8,275.7z   M423.2,275.7c-4.8,0-8.3-1-10.3-3.1c-1-1-1.6-2.3-1.7-3.7c0-0.1-0.2-4.1,2.6-7.2c2.1-2.3,5.2-3.4,9.5-3.4c4,0,7.1,1.1,9.1,3.4  c3.1,3.4,2.7,8.2,2.7,8.3c0.1,1.9,1.6,3.4,3.5,3.3c1.8-0.1,3.2-1.5,3.3-3.3c0-18.2-17.9-18.4-18.7-18.4h-0.1  c-18.2,0-18.8,15.5-18.8,17.3c0,5.1,4,13.9,18.9,13.9c5,0,8.7,1.1,10.7,3.2c1.2,1.2,2,3,1.9,4.8c0.1,0.9-0.1,4.2-2.5,6.7  c-2.1,2.2-5.5,3.4-10,3.4h-0.1c-4.1,0-7.1-1.2-9.3-3.4c-1.8-2.1-2.8-4.7-2.7-7.5c0-2-1.5-3.5-3.5-3.5c-2,0-3.5,1.5-3.5,3.5  c-0.2,4.6,1.5,9,4.8,12.3c3.5,3.6,8.5,5.5,14.1,5.5c14.5,0,19.7-9.1,19.7-17C442.9,281.6,435.1,275.7,423.2,275.7L423.2,275.7z   M234.5,251.5c-11,0-18.8,7.7-18.8,18.9l0.1,32.7c-0.1,2,1.5,3.5,3.4,3.7c2,0.1,3.5-1.5,3.7-3.4v-14.1h11.8  c10.4-0.2,18.7-8.7,18.5-19.1C252.8,259.9,244.6,251.6,234.5,251.5L234.5,251.5z M234.3,282.3h-11.6l-0.1-12  c0-7.2,4.7-12.1,11.7-12.1c6.6,0,12,5.4,12,12C246.4,276.9,241,282.3,234.3,282.3z M286.7,251.5c-15.5,0-28,12.6-28,28.1  c0,15.5,12.6,28.1,28,28.1s28-12.6,28-28.1C314.8,264.1,302.3,251.5,286.7,251.5L286.7,251.5z M286.7,300.9  c-11.8,0-21.3-9.5-21.3-21.3c0-11.8,9.5-21.3,21.3-21.3c11.8,0,21.3,9.5,21.3,21.3C308,291.4,298.5,300.8,286.7,300.9z M346.1,288.1  c9.8-3.8,14.5-14.9,10.7-24.6c-2.9-7.3-9.8-12-17.6-12c-11.2,0-18.9,7.9-18.9,19l0.1,32.7c0,2,1.6,3.5,3.5,3.5s3.5-1.6,3.5-3.5  v-13.7h11.2l9.3,15.2c1,1.7,3.1,2.3,4.8,1.3c0.8-0.5,1.4-1.2,1.6-2.2c0.2-0.9,0.1-1.9-0.4-2.7L346.1,288.1L346.1,288.1z   M327.3,282.5v-12.1c0-7.3,4.8-12.1,11.8-12.1c6.6,0,12.1,5.4,12.1,12.1c0,6.6-5.4,12.1-12.1,12.1L327.3,282.5L327.3,282.5z   M400.4,256.1c0,2-1.6,3.5-3.5,3.5h-12.2v43.5c0,2-1.6,3.5-3.5,3.5s-3.5-1.6-3.5-3.5v-43.5h-12.2c-2,0-3.5-1.6-3.5-3.5  c0-2,1.6-3.5,3.5-3.5h31.4C398.9,252.5,400.4,254.1,400.4,256.1L400.4,256.1z"/>
</svg>